# xmcd
#
# Track frame offsets:
#	150
#	6481
#	15921
#	26332
#	39095
#	51021
#	60539
#	72784
#	84634
#	93332
#	103538
#	115006
#	127465
#	137327
#	166368
#	178024
#	190265
#
# Disc length: 2571 seconds
#
# Revision: 0
# Processed by: cddbd v1.5.1PL0 Copyright (c) Steve Scherf et al.
# Submitted via: dBpowerAMP V4.0
#
DISCID=d40a0911
DTITLE=bill monroe - live w joe stearm brad keith del mccoury betsy lee
DYEAR=1900
DGENRE=
TTITLE0=intro
TTITLE1=panhandly country
TTITLE2=dark holler
TTITLE3=on and on
TTITLE4=the devil's dream
TTITLE5=love's hgonna live here
TTITLE6=i'm dreaming of a little cabin
TTITLE7=muleskinner blues
TTITLE8=footprints int eh snow
TTITLE9=blue moon of kentucky
TTITLE10=rawhide
TTITLE11=john henry
TTITLE12=i saw the light
TTITLE13=what would you give in exchange for your soul?
TTITLE14=uncle penn
TTITLE15=blue ridge mountain blues
TTITLE16=y'all come
EXTD=
EXTT0=
EXTT1=
EXTT2=
EXTT3=
EXTT4=
EXTT5=
EXTT6=
EXTT7=
EXTT8=
EXTT9=
EXTT10=
EXTT11=
EXTT12=
EXTT13=
EXTT14=
EXTT15=
EXTT16=
PLAYORDER=
